<svg xmlns="http://www.w3.org/2000/svg" version="1.1" xmlns:xlink="http://www.w3.org/1999/xlink" xmlns:svgjs="http://svgjs.dev/svgjs" width="2000" height="2024" viewBox="0 0 2000 2024"><g transform="matrix(1,0,0,1,1.767868852458946,0.8194331983804659)"><svg viewBox="0 0 244 247" data-background-color="#0718c4" preserveAspectRatio="xMidYMid meet" height="2024" width="2000" xmlns="http://www.w3.org/2000/svg" xmlns:xlink="http://www.w3.org/1999/xlink"><g id="tight-bounds" transform="matrix(1,0,0,1,-0.21567999999999188,-0.09999999999999432)"><svg viewBox="0 0 244.43135999999998 247.2" height="247.2" width="244.43135999999998"><g><svg></svg></g><g><svg viewBox="0 0 244.43135999999998 247.2" height="247.2" width="244.43135999999998"><g transform="matrix(1,0,0,1,0,95.9374820338983)"><svg viewBox="0 0 244.43135999999998 55.32503593220337" height="55.32503593220337" width="244.43135999999998"><g><svg viewBox="0 0 244.43135999999998 55.32503593220337" height="55.32503593220337" width="244.43135999999998"><g><svg viewBox="0 0 244.43135999999998 55.32503593220337" height="55.32503593220337" width="244.43135999999998"><g><svg viewBox="0 0 244.43135999999998 55.32503593220337" height="55.32503593220337" width="244.43135999999998"><g id="textblocktransform"><svg viewBox="0 0 244.43135999999998 55.32503593220337" height="55.32503593220337" width="244.43135999999998" id="textblock"><g><svg viewBox="0 0 244.43135999999998 55.32503593220337" height="55.32503593220337" width="244.43135999999998"><g transform="matrix(1,0,0,1,0,0)"><svg width="244.43135999999998" viewBox="3.15 -31.5 141.57999999999998 32.05" height="55.32503593220337" data-palette-color="#8dbdff"><path d="M11.6 0L3.15 0 3.15-29.55 12-29.55Q13.9-29.55 15.28-29 16.65-28.45 17.38-27.13 18.1-25.8 18.1-23.5L18.1-23.5 18.1-6.45Q18.1-3.9 17.3-2.5 16.5-1.1 15.03-0.55 13.55 0 11.6 0L11.6 0ZM6.4-27.65L6.4-1.8 11.2-1.8Q12.9-1.8 13.93-2.73 14.95-3.65 14.95-6.3L14.95-6.3 14.95-23.1Q14.95-25.75 13.93-26.7 12.9-27.65 11.2-27.65L11.2-27.65 6.4-27.65ZM27.95 0.35L27.95 0.35Q26.8 0.35 25.62 0.03 24.45-0.3 23.62-1.48 22.8-2.65 22.8-5.15L22.8-5.15 22.8-7.55Q22.8-10.05 24.32-11.58 25.85-13.1 28.5-14.3L28.5-14.3Q30.2-15.15 31.27-15.8 32.35-16.45 32.9-17.25 33.45-18.05 33.45-19.4L33.45-19.4 33.45-20.45Q33.45-21.65 32.95-22.3 32.45-22.95 31.62-23.2 30.8-23.45 29.9-23.45L29.9-23.45Q27.65-23.45 26.95-22.23 26.25-21 26.25-18.6L26.25-18.6 26.25-16.5 23.4-16.5 23.4-18.9Q23.4-20.75 23.9-22.18 24.4-23.6 25.8-24.43 27.2-25.25 29.9-25.25L29.9-25.25Q32.75-25.25 34.17-24.6 35.6-23.95 36.07-22.75 36.55-21.55 36.55-19.9L36.55-19.9 36.55 0 33.5 0 33.45-3.1Q32.85-1.4 31.3-0.53 29.75 0.35 27.95 0.35ZM29.1-1.75L29.1-1.75Q31.35-1.75 32.37-3.35 33.4-4.95 33.4-7.6L33.4-7.6 33.4-15.5Q32.9-14.7 31.75-14.05 30.6-13.4 29.4-12.75L29.4-12.75Q27.7-11.75 26.77-10.68 25.85-9.6 25.85-7.7L25.85-7.7 25.85-5.75Q25.85-3.95 26.35-3.1 26.85-2.25 27.6-2 28.35-1.75 29.1-1.75ZM48.9 0L45.25 0 39.45-24.75 42.65-24.75 47.3-3.55 47.2-3.55 51.55-24.75 54.5-24.75 48.9 0ZM60.89 0L57.84 0 57.84-24.75 60.89-24.75 60.89 0ZM59.39-27.8L59.39-27.8Q58.64-27.8 58.12-28.33 57.59-28.85 57.59-29.55L57.59-29.55Q57.59-30.3 58.12-30.78 58.64-31.25 59.39-31.25L59.39-31.25Q60.09-31.25 60.64-30.78 61.19-30.3 61.19-29.55L61.19-29.55Q61.19-28.85 60.64-28.33 60.09-27.8 59.39-27.8ZM71.69 0.4L71.69 0.4Q69.84 0.4 68.64-0.08 67.44-0.55 66.77-1.43 66.09-2.3 65.84-3.63 65.59-4.95 65.59-6.65L65.59-6.65 65.59-19Q65.59-20.35 65.87-21.48 66.14-22.6 66.79-23.43 67.44-24.25 68.54-24.73 69.64-25.2 71.34-25.2L71.34-25.2Q73.34-25.2 74.47-24.6 75.59-24 76.09-23.15L76.09-23.15 76.09-31.5 79.19-31.5 79.19 0 77.04 0 76.74-2.35Q76.44-1.7 75.87-1.07 75.29-0.45 74.32-0.03 73.34 0.4 71.69 0.4ZM72.24-1.5L72.24-1.5Q73.69-1.5 74.49-2.02 75.29-2.55 75.62-3.4 75.94-4.25 76.02-5.28 76.09-6.3 76.09-7.3L76.09-7.3 76.09-20.85Q75.94-21.3 75.57-21.85 75.19-22.4 74.44-22.8 73.69-23.2 72.39-23.2L72.39-23.2Q70.94-23.2 70.19-22.8 69.44-22.4 69.12-21.73 68.79-21.05 68.74-20.2 68.69-19.35 68.69-18.45L68.69-18.45 68.69-6.25Q68.69-5.05 68.84-3.95 68.99-2.85 69.74-2.18 70.49-1.5 72.24-1.5ZM100.34 0.55L100.34 0.55Q98.54 0.55 97.04 0.08 95.54-0.4 94.61-1.9 93.69-3.4 93.69-6.4L93.69-6.4 93.69-23.35Q93.69-26.15 94.66-27.55 95.64-28.95 97.31-29.45 98.99-29.95 101.19-29.95L101.19-29.95Q103.39-29.95 105.06-29.43 106.74-28.9 107.69-27.5 108.64-26.1 108.64-23.35L108.64-23.35 108.64-19.6 105.59-19.6 105.59-23.4Q105.59-25.4 105.01-26.35 104.44-27.3 103.46-27.63 102.49-27.95 101.19-27.95L101.19-27.95Q99.94-27.95 98.94-27.63 97.94-27.3 97.39-26.35 96.84-25.4 96.84-23.4L96.84-23.4 96.84-5.9Q96.84-3.9 97.39-2.93 97.94-1.95 98.94-1.65 99.94-1.35 101.19-1.35L101.19-1.35Q103.14-1.35 104.36-2.53 105.59-3.7 105.59-5.9L105.59-5.9 105.59-12.05 101.74-12.05 101.74-14 108.64-14 108.64 0 106.29 0 106.14-2.85Q105.99-2.5 105.76-2.18 105.54-1.85 105.39-1.6L105.39-1.6Q104.69-0.6 103.46-0.03 102.24 0.55 100.34 0.55ZM118.28 0.35L118.28 0.35Q117.13 0.35 115.96 0.03 114.78-0.3 113.96-1.48 113.13-2.65 113.13-5.15L113.13-5.15 113.13-7.55Q113.13-10.05 114.66-11.58 116.18-13.1 118.83-14.3L118.83-14.3Q120.53-15.15 121.61-15.8 122.68-16.45 123.23-17.25 123.78-18.05 123.78-19.4L123.78-19.4 123.78-20.45Q123.78-21.65 123.28-22.3 122.78-22.95 121.96-23.2 121.13-23.45 120.23-23.45L120.23-23.45Q117.98-23.45 117.28-22.23 116.58-21 116.58-18.6L116.58-18.6 116.58-16.5 113.73-16.5 113.73-18.9Q113.73-20.75 114.23-22.18 114.73-23.6 116.13-24.43 117.53-25.25 120.23-25.25L120.23-25.25Q123.08-25.25 124.51-24.6 125.93-23.95 126.41-22.75 126.88-21.55 126.88-19.9L126.88-19.9 126.88 0 123.83 0 123.78-3.1Q123.18-1.4 121.63-0.53 120.08 0.35 118.28 0.35ZM119.43-1.75L119.43-1.75Q121.68-1.75 122.71-3.35 123.73-4.95 123.73-7.6L123.73-7.6 123.73-15.5Q123.23-14.7 122.08-14.05 120.93-13.4 119.73-12.75L119.73-12.75Q118.03-11.75 117.11-10.68 116.18-9.6 116.18-7.7L116.18-7.7 116.18-5.75Q116.18-3.95 116.68-3.1 117.18-2.25 117.93-2 118.68-1.75 119.43-1.75ZM137.93 0.35L137.93 0.35Q135.63 0.35 134.11-0.28 132.58-0.9 131.86-2.5 131.13-4.1 131.13-6.9L131.13-6.9 131.13-18.45Q131.13-22.05 132.71-23.6 134.28-25.15 137.93-25.15L137.93-25.15Q141.58-25.15 143.16-23.65 144.73-22.15 144.73-18.45L144.73-18.45 144.73-6.9Q144.73-4.1 144.03-2.53 143.33-0.95 141.83-0.3 140.33 0.35 137.93 0.35ZM137.93-1.6L137.93-1.6Q139.93-1.6 140.78-2.6 141.63-3.6 141.63-6.25L141.63-6.25 141.63-18.6Q141.63-21.05 140.83-22.13 140.03-23.2 137.93-23.2L137.93-23.2Q135.98-23.2 135.11-22.18 134.23-21.15 134.23-18.6L134.23-18.6 134.23-6.25Q134.23-3.65 135.11-2.63 135.98-1.6 137.93-1.6Z" opacity="1" transform="matrix(1,0,0,1,0,0)" fill="#8dbdff" class="wordmark-text-0" data-fill-palette-color="primary" id="text-0"></path></svg></g></svg></g></svg></g></svg></g><g></g></svg></g></svg></g></svg></g><path d="M0 89.937L0 1 244.431 1 244.431 89.937 239.442 89.937 239.442 5.989 4.989 5.989 4.989 89.937 0 89.937M0 157.263L0 246.2 244.431 246.2 244.431 157.263 239.442 157.263 239.442 241.211 4.989 241.211 4.989 157.263 0 157.263" fill="#8dbdff" stroke="transparent" data-fill-palette-color="tertiary"></path></svg></g><defs></defs></svg><rect width="244.43135999999998" height="247.2" fill="none" stroke="none" visibility="hidden"></rect></g></svg></g></svg>